<svg width="29" height="28" viewBox="0 0 29 28" fill="none" xmlns="http://www.w3.org/2000/svg">
<g clip-path="url(#clip0_419_8201)">
<path d="M11 17.5L12.75 12.25L18 10.5L16.25 15.75L11 17.5Z" stroke="#444648" stroke-width="1.5" stroke-linecap="round" stroke-linejoin="round"/>
<path d="M4 14C4 15.3789 4.27159 16.7443 4.79926 18.0182C5.32694 19.2921 6.10036 20.4496 7.07538 21.4246C8.05039 22.3996 9.20791 23.1731 10.4818 23.7007C11.7557 24.2284 13.1211 24.5 14.5 24.5C15.8789 24.5 17.2443 24.2284 18.5182 23.7007C19.7921 23.1731 20.9496 22.3996 21.9246 21.4246C22.8996 20.4496 23.6731 19.2921 24.2007 18.0182C24.7284 16.7443 25 15.3789 25 14C25 12.6211 24.7284 11.2557 24.2007 9.98182C23.6731 8.70791 22.8996 7.55039 21.9246 6.57538C20.9496 5.60036 19.7921 4.82694 18.5182 4.29927C17.2443 3.77159 15.8789 3.5 14.5 3.5C13.1211 3.5 11.7557 3.77159 10.4818 4.29927C9.20791 4.82694 8.05039 5.60036 7.07538 6.57538C6.10036 7.55039 5.32694 8.70791 4.79926 9.98182C4.27159 11.2557 4 12.6211 4 14Z" stroke="#444648" stroke-width="2" stroke-linecap="round" stroke-linejoin="round"/>
</g>
<defs>
<clipPath id="clip0_419_8201">
<rect width="28" height="28" fill="white" transform="translate(0.5)"/>
</clipPath>
</defs>
</svg>
