<svg width="29" height="28" viewBox="0 0 29 28" fill="none" xmlns="http://www.w3.org/2000/svg">
<g clip-path="url(#clip0_9126_12876)">
<path d="M12 10.889V17.111C12 17.1802 12.0189 17.2482 12.055 17.3078C12.091 17.3675 12.1427 17.4168 12.2048 17.4506C12.2669 17.4843 12.3372 17.5014 12.4083 17.4999C12.4795 17.4985 12.549 17.4786 12.6096 17.4423L17.8094 14.3313C17.8677 14.2965 17.9158 14.2478 17.9491 14.1898C17.9825 14.1318 18 14.0665 18 14C18 13.9335 17.9825 13.8682 17.9491 13.8102C17.9158 13.7522 17.8677 13.7035 17.8094 13.6687L12.6096 10.5577C12.549 10.5214 12.4795 10.5015 12.4083 10.5001C12.3372 10.4986 12.2669 10.5157 12.2048 10.5494C12.1427 10.5832 12.091 10.6325 12.055 10.6922C12.0189 10.7518 12 10.8198 12 10.889Z" stroke="#444648" stroke-width="1.5" stroke-linecap="round" stroke-linejoin="round"/>
<path d="M12 10.889V17.111C12 17.1802 12.0189 17.2482 12.055 17.3078C12.091 17.3675 12.1427 17.4168 12.2048 17.4506C12.2669 17.4843 12.3372 17.5014 12.4083 17.4999C12.4795 17.4985 12.549 17.4786 12.6096 17.4423L17.8094 14.3313C17.8677 14.2965 17.9158 14.2478 17.9491 14.1898C17.9825 14.1318 18 14.0665 18 14C18 13.9335 17.9825 13.8682 17.9491 13.8102C17.9158 13.7522 17.8677 13.7035 17.8094 13.6687L12.6096 10.5577C12.549 10.5214 12.4795 10.5015 12.4083 10.5001C12.3372 10.4986 12.2669 10.5157 12.2048 10.5494C12.1427 10.5832 12.091 10.6325 12.055 10.6922C12.0189 10.7518 12 10.8198 12 10.889Z" stroke="#444648" stroke-width="1.5" stroke-linecap="round" stroke-linejoin="round"/>
<rect x="5" y="4.5" width="19" height="19" rx="4" stroke="#444648" stroke-width="2"/>
<rect x="5" y="4.5" width="19" height="19" rx="4" stroke="#444648" stroke-width="2"/>
</g>
<defs>
<clipPath id="clip0_9126_12876">
<rect width="28" height="28" fill="white" transform="translate(0.5)"/>
</clipPath>
</defs>
</svg>
