<svg width="14" height="15" viewBox="0 0 14 15" fill="none" xmlns="http://www.w3.org/2000/svg">
<path d="M7.00662 0.840637C7.52514 0.840669 8.0259 1.02955 8.41528 1.37197L8.51795 1.46864L8.98328 1.93397C9.11099 2.06085 9.27775 2.14094 9.45662 2.1613L9.54662 2.16664H10.2133C10.7581 2.16661 11.2823 2.37502 11.6783 2.74913C12.0744 3.12324 12.3123 3.63471 12.3433 4.17864L12.3466 4.29997V4.96664C12.3466 5.14664 12.4079 5.32197 12.5186 5.46197L12.5786 5.52864L13.0433 5.99397C13.4284 6.37694 13.653 6.89238 13.6712 7.43522C13.6894 7.97805 13.4999 8.50739 13.1413 8.9153L13.0446 9.01797L12.5793 9.4833C12.4524 9.61101 12.3723 9.77778 12.3519 9.95664L12.3466 10.0466V10.7133C12.3466 11.2581 12.1382 11.7823 11.7641 12.1783C11.39 12.5744 10.8785 12.8123 10.3346 12.8433L10.2133 12.8466H9.54662C9.36687 12.8467 9.19238 12.9073 9.05128 13.0186L8.98462 13.0786L8.51928 13.5433C8.13632 13.9284 7.62087 14.153 7.07804 14.1712C6.5352 14.1894 6.00586 13.9999 5.59795 13.6413L5.49528 13.5446L5.02995 13.0793C4.90224 12.9524 4.73548 12.8723 4.55662 12.852L4.46662 12.8466H3.79995C3.25514 12.8467 2.73096 12.6383 2.3349 12.2641C1.93885 11.89 1.70094 11.3786 1.66995 10.8346L1.66662 10.7133V10.0466C1.66656 9.86689 1.60597 9.6924 1.49462 9.5513L1.43462 9.48464L0.969949 9.0193C0.584803 8.63634 0.360231 8.12089 0.342021 7.57806C0.323811 7.03522 0.513335 6.50589 0.871949 6.09797L0.968616 5.9953L1.43395 5.52997C1.56082 5.40226 1.64092 5.2355 1.66128 5.05664L1.66662 4.96664V4.29997L1.66995 4.17864C1.69972 3.6556 1.9209 3.1618 2.29134 2.79136C2.66178 2.42092 3.15558 2.19974 3.67862 2.16997L3.79995 2.16664H4.46662C4.64636 2.16658 4.82085 2.10599 4.96195 1.99464L5.02862 1.93464L5.49395 1.46997C5.69217 1.27056 5.92786 1.11231 6.18746 1.0043C6.44706 0.896299 6.72545 0.840678 7.00662 0.840637ZM9.47128 5.6953C9.34626 5.57032 9.17673 5.50011 8.99995 5.50011C8.82317 5.50011 8.65364 5.57032 8.52862 5.6953L6.33328 7.88997L5.47128 7.02864L5.40862 6.9733C5.27462 6.8697 5.10621 6.82098 4.9376 6.83704C4.76898 6.8531 4.6128 6.93274 4.50078 7.05978C4.38876 7.18683 4.32929 7.35175 4.33446 7.52105C4.33963 7.69035 4.40905 7.85133 4.52862 7.9713L5.86195 9.30464L5.92462 9.35997C6.05289 9.45947 6.21305 9.50875 6.37507 9.49856C6.53709 9.48837 6.68982 9.41942 6.80462 9.30464L9.47128 6.63797L9.52662 6.5753C9.62612 6.44703 9.6754 6.28687 9.66521 6.12485C9.65502 5.96283 9.58607 5.8101 9.47128 5.6953Z" fill="#54B5DF"/>
</svg>
