<svg width="12" height="12" viewBox="0 0 12 12" fill="none" xmlns="http://www.w3.org/2000/svg">
<path d="M5.99956 0.166748C6.45327 0.166776 6.89144 0.332048 7.23215 0.631665L7.32198 0.716248L7.72915 1.12341C7.84089 1.23443 7.98681 1.30451 8.14331 1.32233L8.22206 1.327H8.8054C9.28211 1.32697 9.74076 1.50933 10.0873 1.83668C10.4339 2.16403 10.642 2.61156 10.6691 3.0875L10.6721 3.19366V3.777C10.6721 3.9345 10.7257 4.08791 10.8226 4.21041L10.8751 4.26875L11.2816 4.67591C11.6187 5.01101 11.8152 5.46203 11.8311 5.937C11.847 6.41198 11.6812 6.87515 11.3674 7.23208L11.2828 7.32191L10.8756 7.72908C10.7646 7.84082 10.6945 7.98674 10.6767 8.14325L10.6721 8.222V8.80533C10.6721 9.28204 10.4897 9.7407 10.1624 10.0872C9.83503 10.4338 9.3875 10.642 8.91156 10.6691L8.8054 10.672H8.22206C8.06479 10.672 7.91211 10.7251 7.78865 10.8225L7.73031 10.875L7.32315 11.2816C6.98805 11.6186 6.53704 11.8151 6.06206 11.831C5.58708 11.847 5.12391 11.6811 4.76698 11.3673L4.67715 11.2827L4.26998 10.8756C4.15824 10.7646 4.01232 10.6945 3.85581 10.6767L3.77706 10.672H3.19373C2.71702 10.672 2.25836 10.4897 1.91182 10.1623C1.56527 9.83497 1.35709 9.38744 1.32998 8.9115L1.32706 8.80533V8.222C1.32701 8.06472 1.274 7.91204 1.17656 7.78858L1.12406 7.73025L0.71748 7.32308C0.380477 6.98799 0.183976 6.53697 0.168043 6.06199C0.152109 5.58701 0.317942 5.12384 0.63173 4.76691L0.716313 4.67708L1.12348 4.26991C1.2345 4.15817 1.30458 4.01225 1.3224 3.85575L1.32706 3.777V3.19366L1.32998 3.0875C1.35603 2.62984 1.54956 2.19777 1.8737 1.87363C2.19783 1.5495 2.62991 1.35596 3.08756 1.32991L3.19373 1.327H3.77706C3.93434 1.32695 4.08702 1.27393 4.21048 1.1765L4.26881 1.124L4.67598 0.717415C4.84943 0.542933 5.05565 0.404459 5.2828 0.309956C5.50995 0.215453 5.75354 0.166784 5.99956 0.166748ZM8.15615 4.41458C8.04676 4.30522 7.89841 4.24379 7.74373 4.24379C7.58905 4.24379 7.4407 4.30522 7.33131 4.41458L5.4104 6.33491L4.65615 5.58125L4.60131 5.53283C4.48407 5.44217 4.33671 5.39954 4.18917 5.4136C4.04163 5.42765 3.90498 5.49734 3.80696 5.6085C3.70894 5.71967 3.65691 5.86397 3.66143 6.01211C3.66595 6.16024 3.72669 6.30111 3.83131 6.40608L4.99798 7.57275L5.05281 7.62116C5.16505 7.70823 5.3052 7.75135 5.44696 7.74243C5.58873 7.73352 5.72237 7.67318 5.82281 7.57275L8.15615 5.23941L8.20456 5.18458C8.29163 5.07235 8.33475 4.9322 8.32583 4.79043C8.31692 4.64867 8.25658 4.51503 8.15615 4.41458Z" fill="white"/>
</svg>
